<svg xmlns="http://www.w3.org/2000/svg" width="235" height="213" viewBox="0 0 235 213" version="1.1">
 <rect width="90%" height="90%" x="15" y="10" fill="white" rx="135" ry="117" />
  <path d="M 98.677 11.563 C 78.292 16.128, 63.311 24.442, 48.500 39.408 C 36.714 51.317, 30.289 61.430, 25.416 75.738 C 21.342 87.700, 20.015 95.627, 20.015 108 C 20.015 120.373, 21.342 128.300, 25.416 140.262 C 30.289 154.570, 36.714 164.683, 48.500 176.592 C 63.588 191.839, 78.862 200.205, 99.319 204.431 C 108.008 206.226, 124.460 206.470, 134 204.947 C 144.007 203.349, 159.161 197.776, 168.178 192.380 C 184.502 182.610, 200.751 164.194, 207.926 147.333 C 214.242 132.491, 215.475 126.068, 215.475 108 C 215.475 93.825, 215.155 90.389, 213.204 83.616 C 207.835 64.978, 199.273 50.413, 186.343 37.925 C 173.194 25.225, 161.901 18.639, 144.284 13.398 C 133.005 10.042, 109.660 9.103, 98.677 11.563 M 101.408 12.493 C 63.287 19.233, 33.332 47.492, 23.782 85.726 C 20.691 98.103, 20.691 117.897, 23.782 130.274 C 30.631 157.693, 47.540 179.579, 72.784 193.696 C 77.988 196.606, 79.372 197.023, 80.087 195.893 C 81.722 193.311, 81.019 190.026, 76.630 179.741 C 72.176 169.300, 68 154.839, 68 149.850 C 68 145.663, 70.184 131.851, 70.756 132.422 C 71.031 132.698, 70.724 137.155, 70.073 142.328 C 69 150.854, 69.078 152.471, 70.908 159.641 C 72.896 167.427, 75.902 175.263, 81.764 187.937 L 84.740 194.374 86.330 191.437 C 88.644 187.162, 88.359 189.376, 86 194 C 84.900 196.156, 84 198.145, 84 198.420 C 84 199.319, 96.439 202.786, 102.286 203.516 C 106.686 204.066, 108 203.930, 108 202.924 C 108 202.147, 108.574 202.403, 109.418 203.557 C 111.246 206.057, 112.288 204.997, 111.416 201.523 C 110.916 199.531, 110.509 199.167, 109.883 200.155 C 108.575 202.218, 108.837 199.921, 110.591 193.932 C 112.772 186.483, 113.564 186.079, 113.153 192.623 C 112.962 195.664, 113.107 199.759, 113.476 201.722 L 114.145 205.291 123.983 204.646 C 138.790 203.676, 137.763 205.013, 136.385 188.500 C 135.743 180.800, 135.342 174.363, 135.495 174.197 C 135.648 174.030, 136.411 177.405, 137.191 181.697 L 138.608 189.500 139.736 184.500 C 142.127 173.898, 143.313 154.400, 142.128 145.164 C 141.508 140.324, 141.061 133.920, 141.136 130.932 L 141.272 125.500 142.063 132.500 C 142.499 136.350, 143.265 143.100, 143.765 147.500 C 144.755 156.200, 143.920 168.741, 141.461 182.114 C 140.612 186.726, 139.643 193.158, 139.306 196.406 L 138.694 202.311 142.307 201.725 C 148.663 200.694, 162.779 194.331, 171.320 188.649 C 191.829 175.003, 206.137 154.582, 212.223 130.274 C 215.293 118.011, 215.281 98.201, 212.196 85.726 C 203.398 50.149, 176.655 23.032, 141.454 13.997 C 130.880 11.283, 112.217 10.582, 101.408 12.493 M 105.500 17.332 C 92.878 21.535, 87.148 28.833, 85.096 43.324 C 84.581 46.959, 83.449 50.948, 82.580 52.189 C 81.711 53.430, 81 55.658, 81 57.140 C 81 60.275, 84.303 68.451, 85.991 69.494 C 86.627 69.887, 86.252 68.454, 85.157 66.308 C 82.457 61.015, 81.563 55.685, 82.944 53.105 C 84.576 50.055, 86.875 50.520, 88.598 54.250 L 90.099 57.500 89.483 54.562 C 89.145 52.946, 88.152 51.101, 87.278 50.462 C 83.439 47.654, 88.770 29.896, 95.035 24.624 C 103.739 17.300, 120.452 15.856, 130.871 21.526 C 140.946 27.010, 146.051 35.946, 145.956 47.932 C 145.932 50.994, 145.294 55.075, 144.538 57 C 143.781 58.925, 141.656 64.357, 139.814 69.071 C 135.758 79.450, 133.837 82.516, 130.213 84.390 C 127.323 85.884, 115.809 89.142, 115.282 88.615 C 114.523 87.856, 122.461 58.001, 123.419 58.010 C 124.014 58.015, 126.928 59.150, 129.895 60.531 C 132.863 61.912, 135.492 62.841, 135.738 62.595 C 136.322 62.012, 131.528 59.600, 126.653 58.024 C 122.947 56.827, 122.828 56.648, 123.375 53.141 C 123.688 51.138, 124.150 42.975, 124.402 35 L 124.860 20.500 123.986 34 C 123.506 41.425, 122.722 49.300, 122.244 51.500 C 121.494 54.955, 121.044 55.463, 118.938 55.228 C 117.597 55.079, 111.550 54.782, 105.500 54.569 L 94.500 54.181 105 54.942 C 110.775 55.361, 116.761 56.050, 118.303 56.473 C 121.526 57.359, 121.623 56.061, 116.886 75.468 C 115.279 82.050, 113.592 87.808, 113.136 88.264 C 112 89.400, 97.304 79.430, 95.277 76.149 C 93.412 73.131, 91.076 71, 89.634 71 C 88.566 71, 90.181 72.928, 96.750 79.494 C 100.119 82.861, 101 84.461, 101 87.216 C 101 91.841, 98.958 93.414, 90.500 95.300 C 81.750 97.251, 76.419 99.467, 75.649 101.472 C 75.184 102.685, 75.643 102.600, 77.778 101.080 C 80.240 99.326, 83.334 98.332, 96.729 94.989 C 100.579 94.029, 101.074 93.538, 102.245 89.522 L 103.532 85.110 108.263 88.055 C 110.865 89.675, 113.594 91, 114.326 91 C 115.059 91, 115.623 91.788, 115.579 92.750 C 115.536 93.713, 115.834 94.622, 116.242 94.772 C 137.057 102.408, 137.592 102.729, 138.851 108.338 C 139.573 111.552, 139.810 111.884, 139.893 109.797 C 140.035 106.204, 138.354 102.704, 135.679 101.024 C 134.480 100.271, 129.900 98.202, 125.500 96.425 C 116.363 92.735, 114.819 90.488, 120.688 89.421 C 125.989 88.457, 133.410 84.566, 135.840 81.477 C 136.960 80.052, 138.644 76.550, 139.582 73.693 C 140.521 70.837, 142.378 66.025, 143.709 63 C 147.277 54.895, 148.211 48.693, 146.937 41.562 C 145.085 31.192, 138.729 22.979, 129.343 18.828 C 123.771 16.363, 110.846 15.552, 105.500 17.332 M 90.158 61 C 90.158 62.375, 90.385 62.938, 90.662 62.250 C 90.940 61.563, 90.940 60.438, 90.662 59.750 C 90.385 59.063, 90.158 59.625, 90.158 61 M 89.031 65.500 C 89.031 66.050, 89.467 67.175, 90 68 C 90.533 68.825, 90.969 69.050, 90.969 68.500 C 90.969 67.950, 90.533 66.825, 90 66 C 89.467 65.175, 89.031 64.950, 89.031 65.500 M 73.145 107.649 C 72.602 109.767, 71.927 115.775, 71.644 121 C 71.093 131.186, 71.865 127.992, 73.817 112 C 74.850 103.541, 74.604 101.953, 73.145 107.649 M 86.708 110.683 C 86.277 111.398, 83.844 131.620, 82.376 146.691 C 81.894 151.647, 81.726 151.901, 78.685 152.281 L 75.500 152.680 78.731 152.840 C 82.331 153.018, 81.941 152.081, 84.412 166.500 C 86.313 177.598, 88.817 186.231, 89.934 185.541 C 90.396 185.255, 90.047 183.104, 89.159 180.761 C 87.886 177.399, 87.597 173.335, 87.792 161.500 C 87.944 152.268, 87.524 143.600, 86.700 138.959 C 85.586 132.685, 85.583 129.677, 86.682 121.044 C 87.912 111.389, 87.918 108.676, 86.708 110.683 M 140.232 119 C 140.232 120.925, 140.438 121.713, 140.689 120.750 C 140.941 119.787, 140.941 118.213, 140.689 117.250 C 140.438 116.287, 140.232 117.075, 140.232 119 M 133 120.357 C 133 121.653, 132.495 128.741, 131.878 136.107 C 130.904 147.733, 130.989 150.984, 132.519 160.750 C 133.488 166.938, 134.610 172, 135.012 172 C 135.413 172, 135.275 169.863, 134.706 167.250 C 134.135 164.633, 133.736 152.507, 133.818 140.250 C 133.900 128.012, 133.749 118, 133.483 118 C 133.217 118, 133 119.061, 133 120.357 M 84.750 139.575 C 83.835 140.501, 83.753 156.515, 84.641 160.956 C 85.092 163.211, 85.532 163.767, 86.126 162.831 C 87.764 160.247, 86.440 137.867, 84.750 139.575 M 139.500 152 C 137.870 152.701, 137.812 152.872, 139.191 152.930 C 140.121 152.968, 141.160 152.550, 141.500 152 C 142.211 150.850, 142.176 150.850, 139.500 152 M 82.195 195.500 C 82.215 197.150, 82.439 197.704, 82.693 196.731 C 82.947 195.758, 82.930 194.408, 82.656 193.731 C 82.382 193.054, 82.175 193.850, 82.195 195.500" stroke="black" stroke-width="3" fill="#fffff" fill-rule="evenodd"/>
</svg>